# Blender 4.3.2
# www.blender.org
mtllib Raum.mtl
o Raum_1
v 3.833606 4.000000 -3.353500
v 3.833606 -0.000000 -3.353500
v 3.833606 4.000000 4.435951
v 3.833606 -0.000000 4.435951
v -4.516541 4.000000 -3.353500
v -4.516541 -0.000000 -3.353500
v -4.516541 4.000000 4.435951
v -4.516541 -0.000000 4.435951
vn -0.0000 -1.0000 -0.0000
vn -0.0000 -0.0000 -1.0000
vn 1.0000 -0.0000 -0.0000
vn -0.0000 1.0000 -0.0000
vn -1.0000 -0.0000 -0.0000
vn -0.0000 -0.0000 1.0000
vt 0.625000 0.500000
vt 0.625000 0.750000
vt 0.875000 0.750000
vt 0.875000 0.500000
vt 0.375000 0.750000
vt 0.375000 1.000000
vt 0.625000 1.000000
vt 0.375000 0.000000
vt 0.375000 0.250000
vt 0.625000 0.250000
vt 0.625000 0.000000
vt 0.125000 0.500000
vt 0.125000 0.750000
vt 0.375000 0.500000
s 0
usemtl Want
f 1/1/1 3/2/1 7/3/1 5/4/1
f 4/5/2 8/6/2 7/7/2 3/2/2
f 8/8/3 6/9/3 5/10/3 7/11/3
f 6/12/4 8/13/4 4/5/4 2/14/4
f 2/14/5 4/5/5 3/2/5 1/1/5
f 6/9/6 2/14/6 1/1/6 5/10/6
o Tresen
v -0.809875 1.500000 2.177279
v -0.809875 -0.000000 1.006962
v -0.809875 1.500000 1.006962
v 3.811550 -0.000000 2.177279
v 3.811550 1.500000 2.177279
v 3.811550 -0.000000 1.006962
v 3.811550 1.500000 1.006962
v -1.989517 -0.000000 1.006962
v -1.989517 -0.000000 2.177279
v -1.989517 1.500000 2.177279
v -1.989517 1.500000 1.006962
v -0.809875 -0.000000 3.132445
v -0.809875 1.500000 3.132445
v -1.989517 -0.000000 3.132445
v -1.989517 1.500000 3.132445
v -0.809875 0.219954 2.177279
v -0.809875 0.815612 2.177279
v -0.809875 0.815612 1.006962
v -0.809875 0.219954 1.006962
v 3.811550 0.815612 1.006962
v 3.811550 0.219954 1.006962
v 3.811550 0.815612 2.177279
v 3.811550 0.219954 2.177279
v -1.989517 0.219954 2.177279
v -1.989517 0.815612 2.177279
v -1.989517 0.815612 1.006962
v -1.989517 0.219954 1.006962
v -0.809875 0.219954 3.132445
v -0.809875 0.815612 3.132445
v -1.989517 0.219954 3.132445
v -1.989517 0.815612 3.132445
v -0.809875 1.450000 2.177279
v -0.809875 -0.000000 1.056962
v -0.809875 1.450000 1.056962
v 3.761550 -0.000000 2.177279
v 3.761550 1.450000 2.177279
v 3.761550 -0.000000 1.056962
v 3.761550 1.450000 1.056962
v -1.939517 -0.000000 1.056962
v -1.939517 -0.000000 2.177279
v -1.939517 1.450000 2.177279
v -1.939517 1.450000 1.056962
v -0.809875 -0.000000 3.082445
v -0.809875 1.450000 3.082445
v -1.939517 -0.000000 3.082445
v -1.939517 1.450000 3.082445
v -0.809875 0.169954 2.177279
v -0.809875 0.765612 2.177279
v -0.809875 0.790612 1.056962
v -0.809875 0.194954 1.056962
v 3.751550 0.785612 1.066962
v 3.751550 0.189954 1.066962
v 3.744883 0.782279 2.177279
v 3.744883 0.186621 2.177279
v -1.939517 0.194954 2.177279
v -1.939517 0.790612 2.177279
v -1.929517 0.785612 1.066962
v -1.929517 0.189954 1.066962
v -0.809875 0.186621 3.065778
v -0.809875 0.782279 3.065778
v -1.929517 0.189954 3.072445
v -1.929517 0.785612 3.072445
v -0.809875 1.500000 0.889930
v -2.107481 1.500000 0.889930
v -0.691910 1.500000 2.294311
v -2.107481 1.500000 2.177279
v -0.691910 1.500000 3.227962
v -2.107481 1.500000 3.227962
v 3.833606 1.500000 0.889930
v 3.833606 1.500000 2.294311
v -0.809875 1.572367 0.889930
v -2.107481 1.572367 0.889930
v -0.691910 1.572367 2.294311
v -2.107481 1.572367 2.177279
v -0.691910 1.572367 3.227962
v -2.107481 1.572367 3.227962
v 3.833606 1.572367 0.889930
v 3.833606 1.572367 2.294311
vn -0.0000 -0.0000 -1.0000
vn 1.0000 -0.0000 -0.0000
vn -0.0000 -1.0000 -0.0000
vn -1.0000 -0.0000 -0.0000
vn -0.0000 -0.0000 1.0000
vn -0.0000 1.0000 -0.0000
vn 0.0045 -0.0261 0.9996
vn -0.0011 0.0076 1.0000
vn -0.9998 0.0200 -0.0030
vn 1.0000 0.0076 0.0045
vn -0.0029 0.0200 -0.9998
vn 0.9996 -0.0261 -0.0056
vn 1.0000 0.0076 -0.0055
vn 0.9999 -0.0000 -0.0112
vn -0.0031 -0.0706 -0.9975
vn -0.0060 -0.0000 -1.0000
vn 0.9996 -0.0261 0.0045
vn 1.0000 -0.0000 0.0090
vn -0.9975 -0.0706 -0.0031
vn -1.0000 -0.0000 -0.0060
vn -0.0011 -0.0260 0.9997
vn -0.0022 -0.0000 1.0000
vn 0.0044 0.0076 1.0000
vn 0.0089 -0.0000 1.0000
vn -0.0023 -1.0000 -0.0094
vt 0.411659 0.250000
vt 0.375000 0.250000
vt 0.494992 0.250000
vt 0.625000 0.250000
vt 0.625000 0.500000
vt 0.494992 0.500000
vt 0.625000 0.750000
vt 0.494992 0.750000
vt 0.494992 0.000000
vt 0.625000 0.000000
vt 0.494992 1.000000
vt 0.625000 1.000000
vt 0.411659 0.000000
vt 0.375000 0.000000
vt 0.375000 1.000000
vt 0.411659 1.000000
vt 0.375000 0.500000
vt 0.411659 0.500000
vt 0.411659 0.750000
vt 0.375000 0.750000
vt 0.000000 0.000000
vt 0.875000 0.750000
vt 0.875000 0.500000
s 0
usemtl Holz
f 27/15/7 10/16/7 16/16/7 35/15/7
f 26/17/7 11/18/7 15/19/7 28/20/7
f 28/20/8 15/19/8 13/21/8 30/22/8
f 13/21/9 15/19/9 77/19/9 78/21/9
f 33/23/10 18/24/10 19/18/10 34/17/10
f 37/25/11 21/26/11 23/26/11 39/25/11
f 32/27/10 17/28/10 22/28/10 38/27/10
f 18/24/10 33/23/10 39/23/10 23/24/10
f 33/23/10 32/27/10 38/27/10 39/23/10
f 20/29/11 36/30/11 38/30/11 22/29/11
f 36/30/11 37/25/11 39/25/11 38/30/11
f 17/28/10 32/27/10 35/15/10 16/16/10
f 32/27/10 33/23/10 34/17/10 35/15/10
f 14/31/8 29/32/8 31/33/8 12/34/8
f 29/32/8 28/20/8 30/22/8 31/33/8
f 10/16/7 27/15/7 29/32/7 14/31/7
f 27/15/7 26/17/7 28/20/7 29/32/7
f 11/18/7 26/17/7 34/17/7 19/18/7
f 26/17/7 27/15/7 35/15/7 34/17/7
f 32/35/12 38/35/12 36/35/12 24/35/12 31/35/12 29/35/12 27/35/12 35/35/12
f 34/35/12 33/35/12 39/35/12 37/35/12 25/35/12 30/35/12 28/35/12 26/35/12
f 58/15/13 66/15/13 47/16/13 41/16/13
f 57/17/14 59/20/14 46/19/14 42/18/14
f 59/20/15 61/22/15 44/21/15 46/19/15
f 46/19/9 44/21/9 40/36/9 42/37/9
f 64/23/16 65/17/16 50/18/16 49/24/16
f 40/36/9 49/36/9 50/37/9 42/37/9
f 68/25/17 70/25/17 54/26/17 52/26/17
f 63/27/18 69/27/18 53/28/18 48/28/18
f 40/36/9 52/36/9 54/36/9 49/36/9
f 49/24/19 54/24/19 70/23/19 64/23/19
f 64/23/20 70/23/20 69/27/20 63/27/20
f 51/29/21 53/29/21 69/30/21 67/30/21
f 67/30/22 69/30/22 70/25/22 68/25/22
f 48/28/23 47/16/23 66/15/23 63/27/23
f 63/27/24 66/15/24 65/17/24 64/23/24
f 45/31/25 43/34/25 62/33/25 60/32/25
f 60/32/26 62/33/26 61/22/26 59/20/26
f 41/16/27 45/31/27 60/32/27 58/15/27
f 58/15/28 60/32/28 59/20/28 57/17/28
f 42/18/29 50/18/29 65/17/29 57/17/29
f 57/17/30 65/17/30 66/15/30 58/15/30
f 63/35/31 66/35/31 58/35/31 60/35/31 62/35/31 55/35/31 67/35/31 69/35/31
f 65/35/31 57/35/31 59/35/31 61/35/31 56/35/31 68/35/31 70/35/31 64/35/31
f 10/16/9 14/31/9 45/31/9 41/16/9
f 14/31/9 12/34/9 43/34/9 45/31/9
f 12/34/11 31/33/11 62/33/11 43/34/11
f 13/21/11 9/36/11 40/36/11 44/21/11
f 17/28/9 16/16/9 47/16/9 48/28/9
f 16/16/9 10/16/9 41/16/9 47/16/9
f 21/26/8 37/25/8 68/25/8 52/26/8
f 20/29/9 22/29/9 53/29/9 51/29/9
f 9/36/8 21/36/8 52/36/8 40/36/8
f 22/28/9 17/28/9 48/28/9 53/28/9
f 30/22/11 13/21/11 44/21/11 61/22/11
f 31/33/11 30/22/11 61/22/11 62/33/11
f 36/30/8 20/29/8 51/29/8 67/30/8
f 37/25/8 36/30/8 67/30/8 68/25/8
f 24/35/8 36/35/8 67/35/8 55/35/8
f 25/35/8 37/35/8 68/35/8 56/35/8
f 31/35/11 24/35/11 55/35/11 62/35/11
f 30/35/11 25/35/11 56/35/11 61/35/11
f 19/18/9 18/24/9 74/24/9 72/18/9
f 11/18/9 19/18/9 72/18/9 71/18/9
f 18/24/9 23/24/9 76/24/9 74/24/9
f 21/36/9 9/36/9 73/36/9 75/36/9
f 23/26/9 21/26/9 75/26/9 76/26/9
f 73/36/11 78/21/11 86/21/11 81/36/11
f 15/19/9 11/18/9 71/18/9 77/19/9
f 9/36/9 13/21/9 78/21/9 73/36/9
f 81/36/12 79/37/12 80/37/12 82/36/12
f 81/36/12 82/36/12 84/36/12 83/36/12
f 85/19/12 79/37/12 81/36/12 86/21/12
f 72/18/10 74/24/10 82/24/10 80/18/10
f 76/26/11 75/26/11 83/26/11 84/26/11
f 71/18/7 72/18/7 80/18/7 79/18/7
f 77/19/7 71/18/7 79/18/7 85/19/7
f 75/36/8 73/36/8 81/36/8 83/36/8
f 78/21/8 77/19/8 85/19/8 86/21/8
f 74/24/10 76/24/10 84/24/10 82/24/10
