# Blender 4.3.2
# www.blender.org
mtllib Tresen.mtl
o Tresen
v -0.809875 0.958211 2.177279
v -0.809875 -0.000000 1.006962
v -0.809875 0.958211 1.006962
v 3.811550 -0.000000 2.177279
v 3.811550 0.958211 2.177279
v 3.811550 -0.000000 1.006962
v 3.811550 0.958211 1.006962
v -1.989517 -0.000000 1.006962
v -1.989517 -0.000000 2.177279
v -1.989517 0.958211 2.177279
v -1.989517 0.958211 1.006962
v -0.809875 -0.000000 3.132445
v -0.809875 0.958211 3.132445
v -1.989517 -0.000000 3.132445
v -1.989517 0.958211 3.132445
v -0.809875 0.140508 2.177279
v -0.809875 0.521019 2.177279
v -0.809875 0.521019 1.006962
v -0.809875 0.140508 1.006962
v 3.811550 0.521019 1.006962
v 3.811550 0.140508 1.006962
v 3.811550 0.521019 2.177279
v 3.811550 0.140508 2.177279
v -1.989517 0.140508 2.177279
v -1.989517 0.521019 2.177279
v -1.989517 0.521019 1.006962
v -1.989517 0.140508 1.006962
v -0.809875 0.140508 3.132445
v -0.809875 0.521019 3.132445
v -1.989517 0.140508 3.132445
v -1.989517 0.521019 3.132445
v -0.809875 0.926271 2.177279
v -0.809875 -0.000000 1.056962
v -0.809875 0.926271 1.056962
v 3.761550 -0.000000 2.177279
v 3.761550 0.926271 2.177279
v 3.761550 -0.000000 1.056962
v 3.761550 0.926271 1.056962
v -1.939517 -0.000000 1.056962
v -1.939517 -0.000000 2.177279
v -1.939517 0.926271 2.177279
v -1.939517 0.926271 1.056962
v -0.809875 -0.000000 3.082445
v -0.809875 0.926271 3.082445
v -1.939517 -0.000000 3.082445
v -1.939517 0.926271 3.082445
v -0.809875 0.108568 2.177279
v -0.809875 0.489079 2.177279
v -0.809875 0.505049 1.056962
v -0.809875 0.124538 1.056962
v 3.751550 0.501855 1.066962
v 3.751550 0.121344 1.066962
v 3.744883 0.499726 2.177279
v 3.744883 0.119215 2.177279
v -1.939517 0.124538 2.177279
v -1.939517 0.505049 2.177279
v -1.929517 0.501855 1.066962
v -1.929517 0.121344 1.066962
v -0.809875 0.119215 3.065778
v -0.809875 0.499726 3.065778
v -1.929517 0.121344 3.072445
v -1.929517 0.501855 3.072445
v -0.809875 0.958211 0.889930
v -2.107481 0.958211 0.889930
v -0.691910 0.958211 2.294311
v -2.107481 0.958211 2.177279
v -0.691910 0.958211 3.227962
v -2.107481 0.958211 3.227962
v 3.833606 0.958211 0.889930
v 3.833606 0.958211 2.294311
v -0.809875 1.004440 0.889930
v -2.107481 1.004440 0.889930
v -0.691910 1.004440 2.294311
v -2.107481 1.004440 2.177279
v -0.691910 1.004440 3.227962
v -2.107481 1.004440 3.227962
v 3.833606 1.004440 0.889930
v 3.833606 1.004440 2.294311
vn -0.0000 -0.0000 -1.0000
vn 1.0000 -0.0000 -0.0000
vn -0.0000 -1.0000 -0.0000
vn -1.0000 -0.0000 -0.0000
vn -0.0000 -0.0000 1.0000
vn -0.0000 1.0000 -0.0000
vn 0.0045 -0.0408 0.9992
vn -0.0011 0.0118 0.9999
vn -0.9995 0.0313 -0.0030
vn 0.9999 0.0119 0.0045
vn -0.0029 0.0313 -0.9995
vn 0.9991 -0.0409 -0.0056
vn 0.9999 0.0119 -0.0055
vn 0.9999 -0.0000 -0.0112
vn -0.0031 -0.1101 -0.9939
vn -0.0060 -0.0000 -1.0000
vn 0.9992 -0.0408 0.0045
vn 1.0000 -0.0000 0.0090
vn -0.9939 -0.1101 -0.0031
vn -1.0000 -0.0000 -0.0060
vn -0.0011 -0.0407 0.9992
vn -0.0022 -0.0000 1.0000
vn 0.0044 0.0119 0.9999
vn 0.0089 -0.0000 1.0000
vn -0.0015 -1.0000 -0.0060
vt 0.411659 0.250000
vt 0.375000 0.250000
vt 0.494992 0.250000
vt 0.625000 0.250000
vt 0.625000 0.500000
vt 0.494992 0.500000
vt 0.625000 0.750000
vt 0.494992 0.750000
vt 0.494992 0.000000
vt 0.625000 0.000000
vt 0.494992 1.000000
vt 0.625000 1.000000
vt 0.411659 0.000000
vt 0.375000 0.000000
vt 0.375000 1.000000
vt 0.411659 1.000000
vt 0.375000 0.500000
vt 0.411659 0.500000
vt 0.411659 0.750000
vt 0.375000 0.750000
vt 0.000000 0.000000
vt 0.875000 0.750000
vt 0.875000 0.500000
s 0
usemtl Holz
f 19/1/1 2/2/1 8/2/1 27/1/1
f 18/3/1 3/4/1 7/5/1 20/6/1
f 20/6/2 7/5/2 5/7/2 22/8/2
f 5/7/3 7/5/3 69/5/3 70/7/3
f 25/9/4 10/10/4 11/4/4 26/3/4
f 29/11/5 13/12/5 15/12/5 31/11/5
f 24/13/4 9/14/4 14/14/4 30/13/4
f 10/10/4 25/9/4 31/9/4 15/10/4
f 25/9/4 24/13/4 30/13/4 31/9/4
f 12/15/5 28/16/5 30/16/5 14/15/5
f 28/16/5 29/11/5 31/11/5 30/16/5
f 9/14/4 24/13/4 27/1/4 8/2/4
f 24/13/4 25/9/4 26/3/4 27/1/4
f 6/17/2 21/18/2 23/19/2 4/20/2
f 21/18/2 20/6/2 22/8/2 23/19/2
f 2/2/1 19/1/1 21/18/1 6/17/1
f 19/1/1 18/3/1 20/6/1 21/18/1
f 3/4/1 18/3/1 26/3/1 11/4/1
f 18/3/1 19/1/1 27/1/1 26/3/1
f 24/21/6 30/21/6 28/21/6 16/21/6 23/21/6 21/21/6 19/21/6 27/21/6
f 26/21/6 25/21/6 31/21/6 29/21/6 17/21/6 22/21/6 20/21/6 18/21/6
f 50/1/7 58/1/7 39/2/7 33/2/7
f 49/3/8 51/6/8 38/5/8 34/4/8
f 51/6/9 53/8/9 36/7/9 38/5/9
f 38/5/3 36/7/3 32/22/3 34/23/3
f 56/9/10 57/3/10 42/4/10 41/10/10
f 32/22/3 41/22/3 42/23/3 34/23/3
f 60/11/11 62/11/11 46/12/11 44/12/11
f 55/13/12 61/13/12 45/14/12 40/14/12
f 32/22/3 44/22/3 46/22/3 41/22/3
f 41/10/13 46/10/13 62/9/13 56/9/13
f 56/9/14 62/9/14 61/13/14 55/13/14
f 43/15/15 45/15/15 61/16/15 59/16/15
f 59/16/16 61/16/16 62/11/16 60/11/16
f 40/14/17 39/2/17 58/1/17 55/13/17
f 55/13/18 58/1/18 57/3/18 56/9/18
f 37/17/19 35/20/19 54/19/19 52/18/19
f 52/18/20 54/19/20 53/8/20 51/6/20
f 33/2/21 37/17/21 52/18/21 50/1/21
f 50/1/22 52/18/22 51/6/22 49/3/22
f 34/4/23 42/4/23 57/3/23 49/3/23
f 49/3/24 57/3/24 58/1/24 50/1/24
f 55/21/25 58/21/25 50/21/25 52/21/25 54/21/25 47/21/25 59/21/25 61/21/25
f 57/21/25 49/21/25 51/21/25 53/21/25 48/21/25 60/21/25 62/21/25 56/21/25
f 2/2/3 6/17/3 37/17/3 33/2/3
f 6/17/3 4/20/3 35/20/3 37/17/3
f 4/20/5 23/19/5 54/19/5 35/20/5
f 5/7/5 1/22/5 32/22/5 36/7/5
f 9/14/3 8/2/3 39/2/3 40/14/3
f 8/2/3 2/2/3 33/2/3 39/2/3
f 13/12/2 29/11/2 60/11/2 44/12/2
f 12/15/3 14/15/3 45/15/3 43/15/3
f 1/22/2 13/22/2 44/22/2 32/22/2
f 14/14/3 9/14/3 40/14/3 45/14/3
f 22/8/5 5/7/5 36/7/5 53/8/5
f 23/19/5 22/8/5 53/8/5 54/19/5
f 28/16/2 12/15/2 43/15/2 59/16/2
f 29/11/2 28/16/2 59/16/2 60/11/2
f 16/21/2 28/21/2 59/21/2 47/21/2
f 17/21/2 29/21/2 60/21/2 48/21/2
f 23/21/5 16/21/5 47/21/5 54/21/5
f 22/21/5 17/21/5 48/21/5 53/21/5
f 11/4/3 10/10/3 66/10/3 64/4/3
f 3/4/3 11/4/3 64/4/3 63/4/3
f 10/10/3 15/10/3 68/10/3 66/10/3
f 13/22/3 1/22/3 65/22/3 67/22/3
f 15/12/3 13/12/3 67/12/3 68/12/3
f 65/22/5 70/7/5 78/7/5 73/22/5
f 7/5/3 3/4/3 63/4/3 69/5/3
f 1/22/3 5/7/3 70/7/3 65/22/3
f 73/22/6 71/23/6 72/23/6 74/22/6
f 73/22/6 74/22/6 76/22/6 75/22/6
f 77/5/6 71/23/6 73/22/6 78/7/6
f 64/4/4 66/10/4 74/10/4 72/4/4
f 68/12/5 67/12/5 75/12/5 76/12/5
f 63/4/1 64/4/1 72/4/1 71/4/1
f 69/5/1 63/4/1 71/4/1 77/5/1
f 67/22/2 65/22/2 73/22/2 75/22/2
f 70/7/2 69/5/2 77/5/2 78/7/2
f 66/10/4 68/10/4 76/10/4 74/10/4
