# Blender 4.3.2
# www.blender.org
mtllib T端r 2.mtl
o T端r_2
v 4.283607 0.776482 -1.701871
v 4.283607 1.983337 -1.701871
v 4.283607 0.776482 -0.792612
v 4.283607 1.346855 -0.792612
v 3.983607 0.776482 -1.701870
v 3.983607 1.346855 -1.701870
v 3.983608 0.776482 -0.792612
v 3.983608 1.346855 -0.792612
v 4.283607 0.140000 -0.792612
v 4.283607 0.140000 -1.701871
v 4.283607 1.346855 -1.701871
v 4.283607 1.983337 -0.792612
v 3.983608 0.140000 -0.792612
v 3.983608 1.983337 -0.792612
v 3.983607 0.140000 -1.701870
v 3.983607 1.983337 -1.701870
v 4.283608 -0.000000 -0.592611
v 4.283607 -0.000000 -1.901871
v 4.283607 2.123337 -1.901871
v 4.283608 2.123337 -0.592611
v 3.983607 -0.000000 -1.901871
v 3.983608 -0.000000 -0.592611
v 3.983608 2.123337 -0.592611
v 3.983607 2.123337 -1.901871
v 4.283607 0.963124 -0.639611
v 4.283607 0.916482 -1.901871
v 4.283607 1.206855 -1.901871
v 4.283607 1.162706 -0.639611
v 3.983607 0.916482 -1.901871
v 3.983607 0.963124 -0.639611
v 3.983607 1.162706 -0.639611
v 3.983607 1.206855 -1.901871
v 4.033607 0.140000 -1.701870
v 4.033607 0.140000 -0.792612
v 4.033607 1.983337 -0.792612
v 4.033607 1.983337 -1.701870
v 4.033607 0.776482 -1.701870
v 4.033607 0.776482 -0.792612
v 4.033607 1.346855 -0.792612
v 4.033607 1.346855 -1.701870
v 4.233607 0.140000 -0.792612
v 4.233607 0.140000 -1.701871
v 4.233607 1.983337 -1.701871
v 4.233607 1.983337 -0.792612
v 4.233607 0.776482 -0.792612
v 4.233607 0.776482 -1.701871
v 4.233607 1.346855 -1.701871
v 4.233607 1.346855 -0.792612
v 4.283607 -0.000000 -0.886540
v 4.283607 2.123337 -0.886540
v 3.983608 -0.000000 -0.886540
v 3.983608 2.123337 -0.886540
v 4.283607 0.963124 -0.839540
v 4.283607 1.162706 -0.839540
v 3.983607 0.963124 -0.839540
v 3.983607 1.162706 -0.839540
v 4.283607 0.140000 -0.996741
v 4.283607 1.983337 -0.996741
v 3.983608 0.140000 -0.996741
v 3.983608 1.983337 -0.996741
v 4.283607 0.776482 -0.996741
v 4.283607 1.346855 -0.996741
v 3.983608 0.776482 -0.996741
v 3.983608 1.346855 -0.996741
v 4.033607 0.140000 -0.996741
v 4.033607 1.983337 -0.996741
v 4.033607 0.776482 -0.996741
v 4.033607 1.346855 -0.996741
v 4.233607 0.140000 -0.996741
v 4.233607 1.983337 -0.996741
v 4.233607 0.776482 -0.996741
v 4.233607 1.346855 -0.996741
v 4.283608 1.206855 -0.592611
v 4.283608 0.916482 -0.592611
v 3.983608 1.206855 -0.592611
v 3.983608 0.916482 -0.592611
v 4.283607 1.206855 -0.886540
v 3.983608 0.916482 -0.886540
v 4.283607 0.916482 -0.886540
v 3.983608 1.206855 -0.886540
v 4.333608 1.102706 -0.699612
v 4.333608 1.023124 -0.699612
v 4.333608 1.102706 -0.779540
v 4.333608 1.023124 -0.779540
v 4.333608 1.162706 -0.639611
v 4.333608 0.963124 -0.639611
v 4.333607 1.162706 -0.839540
v 4.333607 0.963124 -0.839540
v 4.433608 1.102706 -0.699612
v 4.433608 1.023124 -0.699612
v 4.433608 1.102706 -0.779540
v 4.433608 1.023124 -0.779540
v 4.433608 1.142497 -0.659648
v 4.433608 0.983333 -0.659648
v 4.433608 1.142497 -0.819504
v 4.433608 0.983333 -0.819504
v 4.533608 1.142497 -0.659648
v 4.533608 0.983333 -0.659648
v 4.533608 1.142497 -0.819504
v 4.533608 0.983333 -0.819504
v 3.933607 1.102706 -0.699612
v 3.933607 1.023124 -0.699612
v 3.933607 1.023124 -0.779540
v 3.933607 1.102706 -0.779540
v 3.933607 1.162706 -0.639611
v 3.933607 0.963124 -0.639611
v 3.933607 0.963124 -0.839540
v 3.933607 1.162706 -0.839540
v 3.833607 1.102706 -0.699612
v 3.833607 1.023124 -0.699612
v 3.833607 1.023124 -0.779540
v 3.833607 1.102706 -0.779540
v 3.833607 1.142497 -0.659647
v 3.833607 0.983333 -0.659647
v 3.833607 0.983333 -0.819504
v 3.833607 1.142497 -0.819504
v 3.733607 1.142497 -0.659647
v 3.733607 0.983333 -0.659647
v 3.733607 0.983333 -0.819504
v 3.733607 1.142497 -0.819504
vn -0.0000 -1.0000 -0.0000
vn -1.0000 -0.0000 -0.0000
vn -0.0000 -0.0000 -1.0000
vn -0.0000 1.0000 -0.0000
vn -0.0000 -0.0000 1.0000
vn 1.0000 -0.0000 -0.0000
vt 0.491433 0.241025
vt 0.491433 0.202850
vt 0.487398 0.556125
vt 0.512602 0.556125
vt 0.512602 0.750000
vt 0.487398 0.750000
vt 0.625000 0.750000
vt 0.625000 1.000000
vt 0.512602 1.000000
vt 0.487398 1.000000
vt 0.375000 1.000000
vt 0.375000 0.750000
vt 0.607830 0.172833
vt 0.607830 0.211810
vt 0.607830 0.172833
vt 0.607830 0.038190
vt 0.607830 0.577168
vt 0.607830 0.711810
vt 0.607830 0.538190
vt 0.529772 0.577168
vt 0.529772 0.538190
vt 0.529772 0.711810
vt 0.470228 0.711810
vt 0.392170 0.711810
vt 0.487398 0.250000
vt 0.512602 0.250000
vt 0.625000 0.250000
vt 0.625000 0.500000
vt 0.512602 0.500000
vt 0.487398 0.500000
vt 0.375000 0.500000
vt 0.375000 0.250000
vt 0.392170 0.577168
vt 0.375000 0.556125
vt 0.392170 0.538190
vt 0.625000 0.556125
vt 0.125000 0.750000
vt 0.125000 0.556125
vt 0.125000 0.500000
vt 0.875000 0.556125
vt 0.875000 0.750000
vt 0.875000 0.500000
vt 0.470228 0.577168
vt 0.470229 0.538190
vt 0.470229 0.577168
vt 0.470228 0.172832
vt 0.470229 0.038190
vt 0.487398 0.000000
vt 0.487398 0.193875
vt 0.470228 0.211810
vt 0.392170 0.038190
vt 0.375000 0.000000
vt 0.392170 0.211810
vt 0.529772 0.211810
vt 0.529772 0.038190
vt 0.512602 0.000000
vt 0.625000 0.000000
vt 0.392170 0.172832
vt 0.529772 0.172833
vt 0.392170 0.172832
vt 0.512602 0.193875
vt 0.375000 0.193875
vt 0.508567 0.547150
vt 0.491433 0.547150
vt 0.508567 0.241025
vt 0.508567 0.508975
vt 0.491433 0.508975
vt 0.508567 0.202850
vt 0.496584 0.229569
vt 0.496584 0.214306
vt 0.503416 0.229569
vt 0.503416 0.214306
vt 0.503416 0.520432
vt 0.503416 0.535693
vt 0.496584 0.520431
vt 0.496584 0.535693
vt 0.625000 0.193875
s 0
usemtl Holzt端r
f 78/3/2 80/4/2 32/5/2 29/6/2
f 29/6/3 32/5/3 24/7/3 19/8/3 27/9/3 26/10/3 18/11/3 21/12/3
f 58/13/1 12/14/1 44/14/1 70/15/1 43/16/1 2/16/1
f 60/17/1 16/18/1 36/18/1 66/17/1 35/19/1 14/19/1
f 64/20/4 8/21/4 39/21/4 68/20/4 40/22/4 6/22/4
f 68/20/2 39/21/2 35/19/2 66/17/2 36/18/2 40/22/2
f 5/23/5 15/24/5 33/24/5 37/23/5
f 74/25/5 73/26/5 20/27/5 23/28/5 75/29/5 76/30/5 22/31/5 17/32/5
f 59/33/2 15/24/2 21/12/2 51/34/2 22/31/2 13/35/2
f 60/17/2 14/19/2 23/28/2 52/36/2 24/7/2 16/18/2
f 51/34/1 21/12/1 18/37/1 49/38/1 17/39/1 22/31/1
f 50/40/4 19/41/4 24/7/4 52/36/4 23/28/4 20/42/4
f 63/43/2 7/44/2 76/30/2 78/3/2 29/6/2 5/23/2
f 64/20/2 6/22/2 32/5/2 80/4/2 75/29/2 8/21/2
f 63/43/1 5/23/1 37/23/1 67/45/1 38/44/1 7/44/1
f 61/46/6 1/47/6 26/48/6 79/49/6 74/25/6 3/50/6
f 1/47/6 10/51/6 18/52/6 26/48/6
f 9/53/6 3/50/6 74/25/6 17/32/6
f 4/54/6 12/14/6 20/27/6 73/26/6
f 2/16/6 11/55/6 27/56/6 19/57/6
f 7/44/2 13/35/2 22/31/2 76/30/2
f 14/19/2 8/21/2 75/29/2 23/28/2
f 15/24/2 5/23/2 29/6/2 21/12/2
f 6/22/2 16/18/2 24/7/2 32/5/2
f 71/46/6 45/50/6 41/53/6 69/58/6 42/51/6 46/47/6
f 72/59/6 47/55/6 43/16/6 70/15/6 44/14/6 48/54/6
f 13/35/3 7/44/3 38/44/3 34/35/3
f 61/46/1 3/50/1 45/50/1 71/46/1 46/47/1 1/47/1
f 16/18/5 6/22/5 40/22/5 36/18/5
f 8/21/3 14/19/3 35/19/3 39/21/3
f 57/60/4 10/51/4 42/51/4 69/58/4 41/53/4 9/53/4
f 62/59/6 4/54/6 73/26/6 77/61/6 27/56/6 11/55/6
f 59/33/4 13/35/4 34/35/4 65/33/4 33/24/4 15/24/4
f 62/59/4 11/55/4 47/55/4 72/59/4 48/54/4 4/54/4
f 12/14/3 4/54/3 48/54/3 44/14/3
f 10/51/5 1/47/5 46/47/5 42/51/5
f 67/45/2 37/23/2 33/24/2 65/33/2 34/35/2 38/44/2
f 11/55/5 2/16/5 43/16/5 47/55/5
f 57/60/6 9/53/6 17/32/6 49/62/6 18/52/6 10/51/6
f 3/50/3 9/53/3 41/53/3 45/50/3
f 26/48/6 27/56/6 77/61/6 79/49/6
f 25/1/6 28/65/6 73/26/6 74/25/6
f 31/66/2 30/67/2 76/30/2 75/29/2
f 28/65/6 54/68/6 77/61/6 73/26/6
f 30/67/2 55/64/2 78/3/2 76/30/2
f 53/2/6 25/1/6 74/25/6 79/49/6
f 56/63/2 31/66/2 75/29/2 80/4/2
f 55/64/2 56/63/2 80/4/2 78/3/2
f 54/68/6 53/2/6 79/49/6 77/61/6
f 58/13/6 2/16/6 19/57/6 50/77/6 20/27/6 12/14/6
usemtl T端rknauf
f 25/1/1 53/2/1 88/2/1 86/1/1
f 56/63/3 55/64/3 107/64/3 108/63/3
f 82/69/1 84/70/1 92/70/1 90/69/1
f 54/68/4 28/65/4 85/65/4 87/68/4
f 28/65/5 25/1/5 86/1/5 85/65/5
f 53/2/3 54/68/3 87/68/3 88/2/3
f 82/69/6 81/71/6 85/65/6 86/1/6
f 81/71/6 83/72/6 87/68/6 85/65/6
f 84/70/6 82/69/6 86/1/6 88/2/6
f 83/72/6 84/70/6 88/2/6 87/68/6
f 92/70/2 91/72/2 95/72/2 96/70/2
f 81/71/5 82/69/5 90/69/5 89/71/5
f 84/70/3 83/72/3 91/72/3 92/70/3
f 83/72/4 81/71/4 89/71/4 91/72/4
f 94/69/1 96/70/1 100/70/1 98/69/1
f 91/72/2 89/71/2 93/71/2 95/72/2
f 90/69/2 92/70/2 96/70/2 94/69/2
f 89/71/2 90/69/2 94/69/2 93/71/2
f 100/70/6 99/72/6 97/71/6 98/69/6
f 93/71/5 94/69/5 98/69/5 97/71/5
f 96/70/3 95/72/3 99/72/3 100/70/3
f 95/72/4 93/71/4 97/71/4 99/72/4
f 101/73/4 104/74/4 112/74/4 109/73/4
f 31/66/4 56/63/4 108/63/4 105/66/4
f 55/64/1 30/67/1 106/67/1 107/64/1
f 30/67/5 31/66/5 105/66/5 106/67/5
f 101/73/2 102/75/2 106/67/2 105/66/2
f 102/75/2 103/76/2 107/64/2 106/67/2
f 104/74/2 101/73/2 105/66/2 108/63/2
f 103/76/2 104/74/2 108/63/2 107/64/2
f 112/74/6 111/76/6 115/76/6 116/74/6
f 102/75/5 101/73/5 109/73/5 110/75/5
f 104/74/3 103/76/3 111/76/3 112/74/3
f 103/76/1 102/75/1 110/75/1 111/76/1
f 113/73/4 116/74/4 120/74/4 117/73/4
f 111/76/6 110/75/6 114/75/6 115/76/6
f 109/73/6 112/74/6 116/74/6 113/73/6
f 110/75/6 109/73/6 113/73/6 114/75/6
f 118/75/2 117/73/2 120/74/2 119/76/2
f 114/75/5 113/73/5 117/73/5 118/75/5
f 116/74/3 115/76/3 119/76/3 120/74/3
f 115/76/1 114/75/1 118/75/1 119/76/1
