# Blender 4.2.3 LTS
# www.blender.org
mtllib geburtstags_raum.mtl
o Divider
v -5.809921 0.000000 3.345835
v -5.809921 4.000000 7.345835
v -5.809921 0.000000 7.345835
v -6.170756 4.000000 3.345835
v -6.170756 0.000000 3.345835
v -6.170756 4.000000 7.345835
v -6.170756 0.000000 7.345835
v -5.809921 3.000000 3.345835
v -6.170756 3.000000 7.345835
v -5.809921 3.000000 7.345835
v -6.170756 3.000000 3.345835
v -6.170757 4.000000 -3.345835
v -6.170757 0.000000 -3.345835
v -6.170757 4.000000 -7.345835
v -6.170757 0.000000 -7.345835
v -5.809922 4.000000 -3.345835
v -5.809922 0.000000 -3.345835
v -5.809922 4.000000 -7.345835
v -5.809922 0.000000 -7.345835
v -6.170757 3.000000 -3.345835
v -5.809922 3.000000 -7.345835
v -6.170757 3.000000 -7.345835
v -5.809922 3.000000 -3.345835
v -5.809922 4.000000 3.345835
vn -0.0000 -0.0000 -1.0000
vn 1.0000 -0.0000 -0.0000
vn -1.0000 -0.0000 -0.0000
vn -0.0000 -0.0000 1.0000
vn -0.0000 -1.0000 -0.0000
vt 0.547661 0.580525
vt 0.547661 0.479983
vt 0.571847 0.479983
vt 0.571847 0.580525
vt 0.540033 0.318934
vt 0.137869 0.318934
vt 0.137869 0.251907
vt 0.540033 0.251907
vt 0.137869 0.748093
vt 0.003814 0.748093
vt 0.003814 0.681066
vt 0.137869 0.681066
vt 0.540033 0.748093
vt 0.540033 0.681066
vt 0.003814 0.318934
vt 0.003814 0.251907
vt 0.547661 0.684880
vt 0.547661 0.584338
vt 0.571847 0.584338
vt 0.571847 0.684880
vt 0.540033 0.568934
vt 0.137869 0.568934
vt 0.137869 0.501907
vt 0.540033 0.501907
vt 0.137869 0.498093
vt 0.003814 0.498093
vt 0.003814 0.431066
vt 0.137869 0.431066
vt 0.540033 0.498093
vt 0.540033 0.431066
vt 0.003814 0.568934
vt 0.003814 0.501907
vt 0.571847 0.476170
vt 0.547661 0.476170
vt 0.547661 0.251907
vt 0.571847 0.251907
s 0
usemtl Material.005
f 5/1/1 11/2/1 8/3/1 1/4/1
f 1/5/2 8/6/2 10/7/2 3/8/2
f 9/9/3 6/10/3 4/11/3 11/12/3
f 7/13/3 9/9/3 11/12/3 5/14/3
f 8/6/2 24/15/2 2/16/2 10/7/2
f 17/17/4 23/18/4 20/19/4 13/20/4
f 13/21/3 20/22/3 22/23/3 15/24/3
f 21/25/2 18/26/2 16/27/2 23/28/2
f 19/29/2 21/25/2 23/28/2 17/30/2
f 20/22/3 12/31/3 14/32/3 22/23/3
f 12/31/3 20/22/3 11/12/3 4/11/3
f 23/28/2 16/27/2 24/15/2 8/6/2
f 20/33/5 23/34/5 8/35/5 11/36/5
l 2 6
l 7 3
o Room
v -14.372160 0.000000 7.345835
v 7.345835 0.000000 7.345835
v -14.372160 0.000000 -7.345835
v 7.345835 0.000000 -7.345835
v 7.345835 4.000000 7.345835
v 7.345835 4.000000 -7.345835
v -14.372160 4.000000 7.345835
v -14.372160 4.000000 -7.345835
vn -0.0000 1.0000 -0.0000
vn -1.0000 -0.0000 -0.0000
vn 1.0000 -0.0000 -0.0000
vn -0.0000 -0.0000 1.0000
vn -0.0000 -0.0000 -1.0000
vt 0.005183 0.728986
vt 0.005183 0.005183
vt 0.494817 0.005183
vt 0.494817 0.728986
vt 0.925842 0.005183
vt 0.925842 0.494817
vt 0.792532 0.494817
vt 0.792532 0.005183
vt 0.925842 0.505183
vt 0.925842 0.994817
vt 0.792532 0.994817
vt 0.792532 0.505183
vt 0.638492 0.005183
vt 0.638492 0.728986
vt 0.505183 0.728986
vt 0.505183 0.005183
vt 0.782167 0.728986
vt 0.648857 0.728986
vt 0.648857 0.005183
vt 0.782167 0.005183
s 0
usemtl Material.005
f 28/41/7 26/42/7 29/43/7 30/44/7
f 25/45/8 27/46/8 32/47/8 31/48/8
f 27/49/9 28/50/9 30/51/9 32/52/9
f 25/53/10 31/54/10 29/55/10 26/56/10
usemtl Material.006
f 25/37/6 26/38/6 28/39/6 27/40/6
o Table
v -11.672229 1.160702 3.610769
v -11.811763 1.317894 3.750303
v -11.672229 1.160702 -4.258606
v -11.811763 1.317894 -4.398140
v -9.785877 1.160702 3.610769
v -9.646343 1.317894 3.750303
v -9.785877 1.160702 -4.258606
v -9.646343 1.317894 -4.398140
v -11.811763 1.160702 -4.398140
v -11.811763 1.160702 3.750303
v -9.646343 1.160702 -4.398140
v -9.646343 1.160702 3.750303
v -10.052666 -0.004155 3.610769
v -10.052666 1.160702 3.610769
v -10.052666 -0.004155 3.343981
v -10.052666 1.160702 3.343981
v -9.785877 -0.004155 3.610769
v -9.785877 1.160702 3.610769
v -9.785877 -0.004155 3.343981
v -9.785877 1.160702 3.343981
v -10.052666 -0.004154 -3.991817
v -10.052666 1.160702 -3.991817
v -10.052666 -0.004154 -4.258606
v -10.052666 1.160702 -4.258606
v -9.785877 -0.004154 -3.991817
v -9.785877 1.160702 -3.991817
v -9.785877 -0.004154 -4.258606
v -9.785877 1.160702 -4.258606
v -11.672229 -0.004154 -3.991817
v -11.672229 1.160702 -3.991817
v -11.672229 -0.004154 -4.258606
v -11.672229 1.160702 -4.258606
v -11.405440 -0.004154 -3.991817
v -11.405440 1.160702 -3.991817
v -11.405440 -0.004154 -4.258606
v -11.405440 1.160702 -4.258606
v -11.672229 -0.004154 3.610769
v -11.672229 1.160702 3.610769
v -11.672229 -0.004154 3.343981
v -11.672229 1.160702 3.343981
v -11.405440 -0.004154 3.610769
v -11.405440 1.160702 3.610769
v -11.405440 -0.004154 3.343981
v -11.405440 1.160702 3.343981
v -9.999309 1.160702 3.343981
v -9.999309 1.160702 -3.991818
v -9.999309 0.983168 3.343981
v -9.999309 0.983168 -3.991818
v -9.839235 1.160702 3.343981
v -9.839235 1.160702 -3.991818
v -9.839235 0.983168 3.343981
v -9.839235 0.983168 -3.991818
v -11.632211 1.160702 3.343981
v -11.632211 1.160702 -3.991818
v -11.632211 0.983168 3.343981
v -11.632211 0.983168 -3.991818
v -11.445458 1.160702 3.343981
v -11.445458 1.160702 -3.991818
v -11.445458 0.983168 3.343981
v -11.445458 0.983168 -3.991818
v -10.052666 1.160702 -4.031836
v -11.405441 1.160702 -4.031836
v -10.052666 0.983168 -4.031836
v -11.405441 0.983168 -4.031836
v -10.052666 1.160702 -4.218588
v -11.405441 1.160702 -4.218587
v -10.052666 0.983168 -4.218588
v -11.405441 0.983168 -4.218587
v -10.052666 1.160702 3.570750
v -11.405440 1.160702 3.570751
v -10.052666 0.983168 3.570750
v -11.405440 0.983168 3.570751
v -10.052666 1.160702 3.383999
v -11.405440 1.160702 3.383999
v -10.052666 0.983168 3.383999
v -11.405440 0.983168 3.383999
vn -1.0000 -0.0000 -0.0000
vn -0.0000 -0.0000 -1.0000
vn 1.0000 -0.0000 -0.0000
vn -0.0000 -0.0000 1.0000
vn -0.0000 -1.0000 -0.0000
vn -0.0000 1.0000 -0.0000
vt 0.539667 0.899076
vt 0.522516 0.899076
vt 0.522516 0.009995
vt 0.539667 0.009995
vt 0.849218 0.246265
vt 0.832067 0.246265
vt 0.832067 0.009995
vt 0.849218 0.009995
vt 0.576809 0.899076
vt 0.559657 0.899076
vt 0.559657 0.009995
vt 0.576809 0.009995
vt 0.849218 0.502525
vt 0.832067 0.502525
vt 0.832067 0.266255
vt 0.849219 0.266255
vt 0.231040 0.883851
vt 0.025220 0.883851
vt 0.025220 0.025220
vt 0.231040 0.025220
vt 0.502525 0.899076
vt 0.266255 0.899076
vt 0.266255 0.009995
vt 0.502525 0.009995
vt 0.246265 0.009995
vt 0.246265 0.899076
vt 0.009995 0.899076
vt 0.009995 0.009995
vt 0.881167 0.943791
vt 0.881167 0.816693
vt 0.910277 0.816693
vt 0.910277 0.943791
vt 0.832067 0.943791
vt 0.832067 0.816693
vt 0.861177 0.816693
vt 0.861177 0.943791
vt 0.918309 0.137093
vt 0.918309 0.009995
vt 0.947418 0.009995
vt 0.947418 0.137093
vt 0.832067 0.649614
vt 0.832067 0.522516
vt 0.861177 0.522516
vt 0.861177 0.649614
vt 0.918309 0.284182
vt 0.918309 0.157084
vt 0.947418 0.157084
vt 0.947418 0.284182
vt 0.832067 0.796702
vt 0.832067 0.669604
vt 0.861177 0.669604
vt 0.861177 0.796702
vt 0.918309 0.431270
vt 0.918309 0.304172
vt 0.947418 0.304172
vt 0.947418 0.431270
vt 0.869209 0.137093
vt 0.869209 0.009995
vt 0.898318 0.009995
vt 0.898318 0.137093
vt 0.596799 0.957496
vt 0.596799 0.830398
vt 0.625908 0.830398
vt 0.625908 0.957496
vt 0.869209 0.284182
vt 0.869209 0.157084
vt 0.898318 0.157084
vt 0.898318 0.284182
vt 0.645899 0.957496
vt 0.645899 0.830398
vt 0.675008 0.830398
vt 0.675008 0.957496
vt 0.869209 0.431270
vt 0.869209 0.304172
vt 0.898318 0.304172
vt 0.898318 0.431270
vt 0.694999 0.957496
vt 0.694999 0.830398
vt 0.724108 0.830398
vt 0.724108 0.957496
vt 0.881167 0.649614
vt 0.881167 0.522516
vt 0.910277 0.522516
vt 0.910277 0.649614
vt 0.744099 0.957496
vt 0.744099 0.830398
vt 0.773208 0.830398
vt 0.773208 0.957496
vt 0.881167 0.796702
vt 0.881167 0.669604
vt 0.910277 0.669604
vt 0.910277 0.796702
vt 0.637166 0.810408
vt 0.637166 0.009995
vt 0.656537 0.009995
vt 0.656537 0.810408
vt 0.812077 0.009995
vt 0.812077 0.810408
vt 0.794611 0.810408
vt 0.794611 0.009995
vt 0.695898 0.009995
vt 0.695898 0.810408
vt 0.676527 0.810408
vt 0.676527 0.009995
vt 0.715889 0.810408
vt 0.715889 0.009995
vt 0.735260 0.009995
vt 0.735259 0.810408
vt 0.617176 0.009995
vt 0.617176 0.810408
vt 0.596799 0.810408
vt 0.596799 0.009995
vt 0.774621 0.009995
vt 0.774621 0.810408
vt 0.755250 0.810408
vt 0.755250 0.009995
vt 0.967408 0.157597
vt 0.967408 0.009995
vt 0.986779 0.009995
vt 0.986779 0.157597
vt 0.950643 0.522516
vt 0.950643 0.670117
vt 0.930267 0.670117
vt 0.930267 0.522516
vt 0.986779 0.177587
vt 0.986779 0.325189
vt 0.967408 0.325189
vt 0.967408 0.177587
vt 0.967408 0.492782
vt 0.967408 0.345180
vt 0.986779 0.345180
vt 0.986779 0.492782
vt 0.950643 0.690108
vt 0.950643 0.837710
vt 0.930267 0.837710
vt 0.930267 0.690108
vt 0.990005 0.522516
vt 0.990005 0.670118
vt 0.970634 0.670118
vt 0.970634 0.522516
s 0
usemtl Material.004
f 42/57/11 34/58/11 36/59/11 41/60/11
f 41/61/12 36/62/12 40/63/12 43/64/12
f 43/65/13 40/66/13 38/67/13 44/68/13
f 44/69/14 38/70/14 34/71/14 42/72/14
f 35/73/15 39/74/15 37/75/15 33/76/15
f 40/77/16 36/78/16 34/79/16 38/80/16
f 35/73/15 33/76/15 42/81/15 41/82/15
f 39/74/15 35/73/15 41/82/15 43/83/15
f 37/75/15 39/74/15 43/83/15 44/84/15
f 33/76/15 37/75/15 44/84/15 42/81/15
f 45/85/11 46/86/11 48/87/11 47/88/11
f 47/89/12 48/90/12 52/91/12 51/92/12
f 51/93/13 52/94/13 50/95/13 49/96/13
f 49/97/14 50/98/14 46/99/14 45/100/14
f 53/101/11 54/102/11 56/103/11 55/104/11
f 55/105/12 56/106/12 60/107/12 59/108/12
f 59/109/13 60/110/13 58/111/13 57/112/13
f 57/113/14 58/114/14 54/115/14 53/116/14
f 61/117/11 62/118/11 64/119/11 63/120/11
f 63/121/12 64/122/12 68/123/12 67/124/12
f 67/125/13 68/126/13 66/127/13 65/128/13
f 65/129/14 66/130/14 62/131/14 61/132/14
f 69/133/11 70/134/11 72/135/11 71/136/11
f 71/137/12 72/138/12 76/139/12 75/140/12
f 75/141/13 76/142/13 74/143/13 73/144/13
f 73/145/14 74/146/14 70/147/14 69/148/14
f 77/149/11 78/150/11 80/151/11 79/152/11
f 79/153/15 80/154/15 84/155/15 83/156/15
f 83/157/13 84/158/13 82/159/13 81/160/13
f 85/161/11 86/162/11 88/163/11 87/164/11
f 87/165/15 88/166/15 92/167/15 91/168/15
f 91/169/13 92/170/13 90/171/13 89/172/13
f 93/173/14 94/174/14 96/175/14 95/176/14
f 95/177/15 96/178/15 100/179/15 99/180/15
f 99/181/12 100/182/12 98/183/12 97/184/12
f 101/185/14 102/186/14 104/187/14 103/188/14
f 103/189/15 104/190/15 108/191/15 107/192/15
f 107/193/12 108/194/12 106/195/12 105/196/12
l 81 77
l 78 82
l 89 85
l 86 90
