# Blender 4.2.3 LTS
# www.blender.org
mtllib kleiner_schrank.mtl
o Schrank.001
v -1.361108 0.171553 0.502250
v -1.275178 0.313777 0.465014
v -1.361108 0.171553 -0.502250
v -1.323872 0.265083 -0.465014
v 1.036814 0.171553 0.502250
v 0.950884 0.313777 0.465014
v 1.036814 0.171553 -0.502250
v 0.999578 0.265083 -0.465014
v -1.361108 0.265083 0.502250
v -1.361108 0.265083 -0.502250
v 1.036814 0.265083 -0.502250
v 1.036814 0.265083 0.502250
v -1.275178 1.129132 0.465014
v -1.323872 1.177826 -0.465014
v 0.999578 1.177826 -0.465014
v 0.950884 1.129132 0.465014
v 0.999578 0.265083 0.465014
v -1.323872 0.265083 0.465014
v 0.999578 1.177826 0.465014
v -1.323872 1.177826 0.465014
v 0.950884 0.313777 -0.360163
v -1.275178 0.313777 -0.360163
v 0.950884 1.129132 -0.360163
v -1.275178 1.129132 -0.360163
v 1.029578 1.177826 0.495014
v -1.353872 1.177826 0.495014
v -1.353872 1.177826 -0.495014
v 1.029578 1.177826 -0.495014
v 1.050490 1.225303 0.509000
v -1.374784 1.225303 0.509000
v -1.374784 1.225303 -0.509000
v 1.050490 1.225303 -0.509000
v 1.075119 1.225303 0.531045
v -1.401057 1.225303 0.531045
v -1.401057 1.225303 -0.531045
v 1.075119 1.225303 -0.531045
v 1.075119 1.271835 0.531045
v -1.401057 1.271835 0.531045
v -1.401057 1.271835 -0.531045
v 1.075119 1.271835 -0.531045
v -1.310552 0.000000 0.451693
v -1.323872 0.171553 0.465013
v -1.310552 0.000000 0.373863
v -1.323872 0.171553 0.360542
v -1.232721 0.000000 0.451693
v -1.219401 0.171553 0.465013
v -1.232721 0.000000 0.373863
v -1.219401 0.171553 0.360542
v 0.908427 0.000000 0.451693
v 0.895107 0.171553 0.465013
v 0.908427 0.000000 0.373863
v 0.895107 0.171553 0.360542
v 0.986258 0.000000 0.451693
v 0.999578 0.171553 0.465013
v 0.986258 0.000000 0.373863
v 0.999578 0.171553 0.360542
v 0.908427 0.000000 -0.373863
v 0.895107 0.171553 -0.360542
v 0.908427 0.000000 -0.451693
v 0.895107 0.171553 -0.465013
v 0.986258 0.000000 -0.373863
v 0.999578 0.171553 -0.360542
v 0.986258 0.000000 -0.451693
v 0.999578 0.171553 -0.465013
v -1.310552 0.000000 -0.373863
v -1.323872 0.171553 -0.360542
v -1.310552 0.000000 -0.451693
v -1.323872 0.171553 -0.465013
v -1.232721 0.000000 -0.373863
v -1.219401 0.171553 -0.360542
v -1.232721 0.000000 -0.451693
v -1.219401 0.171553 -0.465013
vn -1.0000 -0.0000 -0.0000
vn -0.0000 -0.0000 -1.0000
vn 1.0000 -0.0000 -0.0000
vn -0.0000 -0.0000 1.0000
vn -0.0000 -1.0000 -0.0000
vn -0.0000 1.0000 -0.0000
vn -0.0000 -0.2826 -0.9592
vn -0.9152 -0.4031 -0.0000
vn -0.0000 -0.2826 0.9592
vn 0.9152 -0.4031 -0.0000
vn -0.9970 -0.0774 -0.0000
vn -0.0000 -0.0774 -0.9970
vn 0.9970 -0.0774 -0.0000
vn -0.0000 -0.0774 0.9970
vt 0.450485 0.769882
vt 0.436789 0.769882
vt 0.436789 0.622320
vt 0.450485 0.622320
vt 0.450491 0.600089
vt 0.436789 0.600089
vt 0.436789 0.380512
vt 0.450491 0.380512
vt 0.197319 0.781913
vt 0.183623 0.781913
vt 0.183623 0.634351
vt 0.197319 0.634351
vt 0.414558 0.600089
vt 0.400836 0.600089
vt 0.400836 0.380512
vt 0.414558 0.380512
vt 0.922716 0.620062
vt 0.922716 0.839640
vt 0.775154 0.839640
vt 0.775154 0.620062
vt 0.752923 0.366759
vt 0.752923 0.699516
vt 0.631704 0.699516
vt 0.631704 0.366759
vt 0.478321 0.950115
vt 0.614943 0.950115
vt 0.620413 0.955585
vt 0.472851 0.955585
vt 0.614943 0.741478
vt 0.620413 0.736008
vt 0.478321 0.741478
vt 0.472851 0.736008
vt 0.450621 0.358281
vt 0.241983 0.358281
vt 0.241983 0.011115
vt 0.450621 0.011115
vt 0.609473 0.713777
vt 0.472851 0.713777
vt 0.472851 0.366759
vt 0.609473 0.366759
vt 0.378605 0.727530
vt 0.241983 0.727530
vt 0.241983 0.380512
vt 0.378605 0.380512
vt 0.018268 0.351673
vt 0.212600 0.351673
vt 0.219753 0.358817
vt 0.011115 0.358817
vt 0.212600 0.018260
vt 0.018268 0.018260
vt 0.011115 0.011115
vt 0.219753 0.011115
vt 0.667182 0.344528
vt 0.472851 0.344528
vt 0.472851 0.011115
vt 0.667182 0.011115
vt 0.241983 0.944092
vt 0.241983 0.749761
vt 0.363203 0.749761
vt 0.363203 0.944092
vt 0.011115 0.713805
vt 0.011115 0.381048
vt 0.132335 0.381048
vt 0.132335 0.713805
vt 0.867665 0.205446
vt 0.867665 0.011115
vt 0.988885 0.011115
vt 0.988885 0.205446
vt 0.015522 0.740443
vt 0.015522 0.949080
vt 0.011115 0.953487
vt 0.011115 0.736036
vt 0.152144 0.949080
vt 0.152144 0.740443
vt 0.156551 0.736036
vt 0.156551 0.953488
vt 0.407944 0.625392
vt 0.407944 0.842844
vt 0.400836 0.845916
vt 0.400836 0.622320
vt 0.694834 0.723801
vt 0.694834 0.869238
vt 0.687637 0.871292
vt 0.687637 0.721747
vt 0.219738 0.384120
vt 0.219738 0.601571
vt 0.212670 0.604643
vt 0.212670 0.381048
vt 0.665407 0.723801
vt 0.665407 0.869238
vt 0.658209 0.871292
vt 0.658209 0.721747
vt 0.842196 0.014975
vt 0.692651 0.014975
vt 0.689413 0.011115
vt 0.845435 0.011115
vt 0.692651 0.238570
vt 0.689413 0.242188
vt 0.842196 0.238570
vt 0.845435 0.242188
vt 0.723879 0.721747
vt 0.723879 0.877769
vt 0.717065 0.877769
vt 0.717065 0.721747
vt 0.190440 0.381048
vt 0.190440 0.612121
vt 0.183623 0.612121
vt 0.183623 0.381048
vt 0.752923 0.721747
vt 0.752923 0.877769
vt 0.746109 0.877769
vt 0.746109 0.721747
vt 0.161392 0.381048
vt 0.161392 0.612121
vt 0.154565 0.612121
vt 0.154565 0.381048
vt 0.775154 0.366759
vt 0.931176 0.366759
vt 0.931176 0.597832
vt 0.775154 0.597832
vt 0.691369 0.289696
vt 0.689413 0.264419
vt 0.704760 0.264419
vt 0.702803 0.289696
vt 0.804102 0.337204
vt 0.802145 0.311927
vt 0.817492 0.311927
vt 0.815535 0.337204
vt 0.691369 0.337204
vt 0.689413 0.311927
vt 0.704760 0.311927
vt 0.702803 0.337204
vt 0.777110 0.887138
vt 0.775154 0.861871
vt 0.790501 0.861871
vt 0.788544 0.887138
vt 0.861742 0.873304
vt 0.850308 0.873304
vt 0.850308 0.861871
vt 0.861742 0.861871
vt 0.728947 0.289696
vt 0.726990 0.264419
vt 0.742337 0.264419
vt 0.740380 0.289696
vt 0.185580 0.829421
vt 0.183623 0.804144
vt 0.198970 0.804144
vt 0.197013 0.829421
vt 0.728947 0.337204
vt 0.726990 0.311927
vt 0.742337 0.311927
vt 0.740380 0.337204
vt 0.814688 0.887138
vt 0.812731 0.861871
vt 0.828078 0.861871
vt 0.826121 0.887138
vt 0.879099 0.239110
vt 0.867665 0.239110
vt 0.867665 0.227677
vt 0.879099 0.227677
vt 0.766524 0.289696
vt 0.764568 0.264419
vt 0.779914 0.264419
vt 0.777958 0.289696
vt 0.841679 0.289696
vt 0.839722 0.264419
vt 0.855069 0.264419
vt 0.853113 0.289696
vt 0.766524 0.337204
vt 0.764568 0.311927
vt 0.779914 0.311927
vt 0.777958 0.337204
vt 0.437095 0.864888
vt 0.435138 0.839620
vt 0.450485 0.839620
vt 0.448528 0.864888
vt 0.412269 0.879580
vt 0.400836 0.879580
vt 0.400836 0.868146
vt 0.412269 0.868146
vt 0.437095 0.817390
vt 0.435138 0.792113
vt 0.450485 0.792113
vt 0.448528 0.817390
vt 0.841679 0.337204
vt 0.839722 0.311927
vt 0.855069 0.311927
vt 0.853112 0.337204
vt 0.804102 0.289696
vt 0.802145 0.264419
vt 0.817492 0.264419
vt 0.815535 0.289696
vt 0.185580 0.876919
vt 0.183623 0.851652
vt 0.198970 0.851652
vt 0.197013 0.876919
vt 0.888733 0.275852
vt 0.877300 0.275852
vt 0.877300 0.264419
vt 0.888733 0.264419
s 0
usemtl Light_Wood
f 1/1/1 9/2/1 10/3/1 3/4/1
f 3/5/2 10/6/2 11/7/2 7/8/2
f 7/9/3 11/10/3 12/11/3 5/12/3
f 5/13/4 12/14/4 9/15/4 1/16/4
f 3/17/5 7/18/5 5/19/5 1/20/5
f 13/21/3 2/22/3 22/23/3 24/24/3
f 18/25/6 4/26/6 10/27/6 9/28/6
f 4/26/6 8/29/6 11/30/6 10/27/6
f 8/29/6 17/31/6 12/32/6 11/30/6
f 17/31/6 18/25/6 9/28/6 12/32/6
f 8/33/2 4/34/2 14/35/2 15/36/2
f 17/37/3 8/38/3 15/39/3 19/40/3
f 4/41/1 18/42/1 20/43/1 14/44/1
f 6/45/4 2/46/4 18/47/4 17/48/4
f 13/49/4 16/50/4 19/51/4 20/52/4
f 16/50/4 6/45/4 17/48/4 19/51/4
f 2/46/4 13/49/4 20/52/4 18/47/4
f 22/53/4 21/54/4 23/55/4 24/56/4
f 16/57/5 13/58/5 24/59/5 23/60/5
f 6/61/1 16/62/1 23/63/1 21/64/1
f 2/65/6 6/66/6 21/67/6 22/68/6
f 20/69/5 19/70/5 25/71/5 26/72/5
f 15/73/5 14/74/5 27/75/5 28/76/5
f 20/69/5 26/72/5 27/75/5 14/74/5
f 15/73/5 28/76/5 25/71/5 19/70/5
f 28/77/7 27/78/7 31/79/7 32/80/7
f 27/81/8 26/82/8 30/83/8 31/84/8
f 26/85/9 25/86/9 29/87/9 30/88/9
f 25/89/10 28/90/10 32/91/10 29/92/10
f 31/93/5 30/94/5 34/95/5 35/96/5
f 30/94/5 29/97/5 33/98/5 34/95/5
f 29/97/5 32/99/5 36/100/5 33/98/5
f 32/99/5 31/93/5 35/96/5 36/100/5
f 33/101/3 36/102/3 40/103/3 37/104/3
f 36/105/2 35/106/2 39/107/2 40/108/2
f 35/109/1 34/110/1 38/111/1 39/112/1
f 34/113/4 33/114/4 37/115/4 38/116/4
f 37/117/6 40/118/6 39/119/6 38/120/6
f 41/121/11 42/122/11 44/123/11 43/124/11
f 43/125/12 44/126/12 48/127/12 47/128/12
f 47/129/13 48/130/13 46/131/13 45/132/13
f 45/133/14 46/134/14 42/135/14 41/136/14
f 43/137/5 47/138/5 45/139/5 41/140/5
f 49/141/11 50/142/11 52/143/11 51/144/11
f 51/145/12 52/146/12 56/147/12 55/148/12
f 55/149/13 56/150/13 54/151/13 53/152/13
f 53/153/14 54/154/14 50/155/14 49/156/14
f 51/157/5 55/158/5 53/159/5 49/160/5
f 57/161/11 58/162/11 60/163/11 59/164/11
f 59/165/12 60/166/12 64/167/12 63/168/12
f 63/169/13 64/170/13 62/171/13 61/172/13
f 61/173/14 62/174/14 58/175/14 57/176/14
f 59/177/5 63/178/5 61/179/5 57/180/5
f 65/181/11 66/182/11 68/183/11 67/184/11
f 67/185/12 68/186/12 72/187/12 71/188/12
f 71/189/13 72/190/13 70/191/13 69/192/13
f 69/193/14 70/194/14 66/195/14 65/196/14
f 67/197/5 71/198/5 69/199/5 65/200/5
o Cube
v -1.225178 0.781454 0.490494
v -1.225178 1.079132 0.490494
v -1.275178 0.731454 0.465014
v -1.275178 1.129132 0.465014
v -0.222147 0.781454 0.490494
v -0.222147 1.079132 0.490494
v -0.172147 0.731454 0.465014
v -0.172147 1.129132 0.465014
v -1.275178 0.731454 0.490494
v -1.275178 1.129132 0.490494
v -0.172147 1.129132 0.490494
v -0.172147 0.731454 0.490494
v -1.225178 0.781454 0.480494
v -1.225178 1.079132 0.480494
v -0.222147 1.079132 0.480494
v -0.222147 0.781454 0.480494
v -0.102147 0.781454 0.490494
v -0.102147 1.079132 0.490494
v -0.152147 0.731454 0.465014
v -0.152147 1.129132 0.465014
v 0.900884 0.781454 0.490494
v 0.900884 1.079132 0.490494
v 0.950884 0.731454 0.465014
v 0.950884 1.129132 0.465014
v -0.152147 0.731454 0.490494
v -0.152147 1.129132 0.490494
v 0.950884 1.129132 0.490494
v 0.950884 0.731454 0.490494
v -0.102147 0.781454 0.480494
v -0.102147 1.079132 0.480494
v 0.900884 1.079132 0.480494
v 0.900884 0.781454 0.480494
v -0.102147 0.363777 0.490494
v -0.102147 0.661454 0.490494
v -0.152147 0.313777 0.465014
v -0.152147 0.711454 0.465014
v 0.900884 0.363777 0.490494
v 0.900884 0.661454 0.490494
v 0.950884 0.313777 0.465014
v 0.950884 0.711454 0.465014
v -0.152147 0.313777 0.490494
v -0.152147 0.711454 0.490494
v 0.950884 0.711454 0.490494
v 0.950884 0.313777 0.490494
v -0.102147 0.363777 0.480494
v -0.102147 0.661454 0.480494
v 0.900884 0.661454 0.480494
v 0.900884 0.363777 0.480494
v -1.225178 0.363777 0.490494
v -1.225178 0.661454 0.490494
v -1.275178 0.313777 0.465014
v -1.275178 0.711454 0.465014
v -0.222147 0.363777 0.490494
v -0.222147 0.661454 0.490494
v -0.172147 0.313777 0.465014
v -0.172147 0.711454 0.465014
v -1.275178 0.313777 0.490494
v -1.275178 0.711454 0.490494
v -0.172147 0.711454 0.490494
v -0.172147 0.313777 0.490494
v -1.225178 0.363777 0.480494
v -1.225178 0.661454 0.480494
v -0.222147 0.661454 0.480494
v -0.222147 0.363777 0.480494
vn -1.0000 -0.0000 -0.0000
vn -0.0000 -0.0000 -1.0000
vn 1.0000 -0.0000 -0.0000
vn -0.0000 1.0000 -0.0000
vn -0.0000 -1.0000 -0.0000
vn -0.0000 -0.0000 1.0000
vt 0.375000 0.000000
vt 0.625000 0.000000
vt 0.625000 0.250000
vt 0.375000 0.250000
vt 0.625000 0.500000
vt 0.375000 0.500000
vt 0.625000 0.750000
vt 0.375000 0.750000
vt 0.406432 0.988667
vt 0.406432 0.761333
vt 0.125000 0.500000
vt 0.125000 0.750000
vt 0.875000 0.500000
vt 0.875000 0.750000
vt 0.593568 0.988668
vt 0.625000 1.000000
vt 0.375000 1.000000
vt 0.593567 0.761333
s 0
usemtl Darker_Light_Wood
f 81/201/15 82/202/15 76/203/15 75/204/15
f 75/204/16 76/203/16 80/205/16 79/206/16
f 79/206/17 80/205/17 83/207/17 84/208/17
f 73/209/18 77/210/18 88/210/18 85/209/18
f 75/211/19 79/206/19 84/208/19 81/212/19
f 80/205/18 76/213/18 82/214/18 83/207/18
f 73/209/20 74/215/20 82/216/20 81/217/20
f 78/218/20 77/210/20 84/208/20 83/207/20
f 77/210/20 73/209/20 81/217/20 84/208/20
f 74/215/20 78/218/20 83/207/20 82/216/20
f 88/210/20 87/218/20 86/215/20 85/209/20
f 74/215/17 73/209/17 85/209/17 86/215/17
f 78/218/19 74/215/19 86/215/19 87/218/19
f 77/210/15 78/218/15 87/218/15 88/210/15
f 97/201/15 98/202/15 92/203/15 91/204/15
f 91/204/16 92/203/16 96/205/16 95/206/16
f 95/206/17 96/205/17 99/207/17 100/208/17
f 89/209/18 93/210/18 104/210/18 101/209/18
f 91/211/19 95/206/19 100/208/19 97/212/19
f 96/205/18 92/213/18 98/214/18 99/207/18
f 89/209/20 90/215/20 98/216/20 97/217/20
f 94/218/20 93/210/20 100/208/20 99/207/20
f 93/210/20 89/209/20 97/217/20 100/208/20
f 90/215/20 94/218/20 99/207/20 98/216/20
f 104/210/20 103/218/20 102/215/20 101/209/20
f 90/215/17 89/209/17 101/209/17 102/215/17
f 94/218/19 90/215/19 102/215/19 103/218/19
f 93/210/15 94/218/15 103/218/15 104/210/15
f 113/201/15 114/202/15 108/203/15 107/204/15
f 107/204/16 108/203/16 112/205/16 111/206/16
f 111/206/17 112/205/17 115/207/17 116/208/17
f 105/209/18 109/210/18 120/210/18 117/209/18
f 107/211/19 111/206/19 116/208/19 113/212/19
f 112/205/18 108/213/18 114/214/18 115/207/18
f 105/209/20 106/215/20 114/216/20 113/217/20
f 110/218/20 109/210/20 116/208/20 115/207/20
f 109/210/20 105/209/20 113/217/20 116/208/20
f 106/215/20 110/218/20 115/207/20 114/216/20
f 120/210/20 119/218/20 118/215/20 117/209/20
f 106/215/17 105/209/17 117/209/17 118/215/17
f 110/218/19 106/215/19 118/215/19 119/218/19
f 109/210/15 110/218/15 119/218/15 120/210/15
f 129/201/15 130/202/15 124/203/15 123/204/15
f 123/204/16 124/203/16 128/205/16 127/206/16
f 127/206/17 128/205/17 131/207/17 132/208/17
f 121/209/18 125/210/18 136/210/18 133/209/18
f 123/211/19 127/206/19 132/208/19 129/212/19
f 128/205/18 124/213/18 130/214/18 131/207/18
f 121/209/20 122/215/20 130/216/20 129/217/20
f 126/218/20 125/210/20 132/208/20 131/207/20
f 125/210/20 121/209/20 129/217/20 132/208/20
f 122/215/20 126/218/20 131/207/20 130/216/20
f 136/210/20 135/218/20 134/215/20 133/209/20
f 122/215/17 121/209/17 133/209/17 134/215/17
f 126/218/19 122/215/19 134/215/19 135/218/19
f 125/210/15 126/218/15 135/218/15 136/210/15
f 79/206/20 75/204/20 124/203/20 128/205/20
f 95/206/20 91/204/20 108/203/20 112/205/20
f 92/203/20 80/205/20 79/206/20 91/204/20
f 128/205/16 108/203/16 107/204/16 127/206/16
f 128/205/20 108/203/20 91/204/20 79/206/20
