# Blender 4.3.2
# www.blender.org
mtllib regal.mtl
o Regal
v -0.520212 -0.075000 1.676198
v -0.484099 -0.080224 1.466842
v -0.484099 -0.085834 -1.541253
v -0.484099 1.769776 1.466842
v -0.484099 -0.080224 1.606842
v 0.423810 1.200612 1.486842
v -0.484099 1.764166 -1.541253
v 0.423810 1.275612 1.486842
v -0.484099 1.769776 1.606842
v 0.423810 1.200612 -1.413158
v 0.423810 1.275612 -1.413158
v -0.484099 -0.085834 -1.401252
v -0.344099 -0.080224 1.466842
v -0.344099 1.769776 1.466842
v -0.344099 -0.080224 1.606842
v -0.484099 1.764166 -1.401252
v -0.344099 1.769776 1.606842
v -0.520212 0.075000 1.676198
v -0.344099 -0.085834 -1.541253
v -0.344099 1.764166 -1.541253
v -0.344099 -0.085834 -1.401252
v -0.344099 1.764166 -1.401252
v -0.520212 -0.075000 -1.602514
v 0.423810 0.615434 1.486842
v 0.423810 0.690434 1.486842
v -0.520212 0.075000 -1.602514
v 0.423810 0.615434 -1.413158
v 0.423810 0.690434 -1.413158
v 0.567831 -0.075000 1.676198
v 0.567831 0.075000 1.676198
v 0.567831 -0.075000 -1.602514
v 0.567831 0.075000 -1.602514
v -0.484099 -0.075000 -1.541253
v -0.484099 -0.075000 -1.534239
v -0.344099 -0.075000 -1.541253
v -0.386502 -0.075000 -1.401252
v -0.344099 -0.075000 -1.401252
v -0.484099 -0.075000 -1.401252
v -0.446502 -0.075000 -1.401252
v -0.484099 0.075000 -1.534239
v -0.484099 0.075000 -1.401252
v -0.446502 0.075000 -1.401252
v -0.484099 0.075000 -1.541253
v -0.344099 0.075000 -1.541253
v -0.344099 0.075000 -1.401252
v -0.386502 0.075000 -1.401252
v -0.386502 1.724209 -1.401252
v -0.446502 1.724209 -1.401252
v -0.386502 -0.077227 -1.401252
v -0.446502 -0.077227 -1.401252
v -0.344099 0.690434 -1.413158
v -0.344099 0.615434 -1.413158
v -0.344099 0.615434 -1.401252
v -0.344099 0.690434 -1.401252
v -0.344099 -0.075000 1.606842
v -0.483527 -0.075000 1.606842
v -0.386502 -0.075000 1.466842
v -0.344099 -0.075000 1.466842
v -0.446502 -0.075000 1.466842
v -0.484099 -0.075000 1.466842
v -0.484099 -0.075000 1.606842
v -0.484099 0.075000 1.466842
v -0.484099 0.075000 1.606842
v -0.446502 0.075000 1.466842
v -0.483527 0.075000 1.606842
v -0.344099 0.075000 1.606842
v -0.386502 0.075000 1.466842
v -0.344099 0.075000 1.466842
v -0.446502 1.724209 1.466842
v -0.386502 1.724209 1.466842
v -0.386502 -0.077227 1.466842
v -0.446502 -0.077227 1.466842
v -0.344099 0.690434 1.486842
v -0.344099 0.615434 1.486842
v -0.344099 0.615434 1.466842
v -0.344099 0.690434 1.466842
v -0.446502 0.572784 -1.401252
v -0.446502 0.742784 -1.401252
v -0.446502 0.742784 1.466842
v -0.446502 0.572784 1.466842
v -0.386502 0.742784 -1.401252
v -0.386502 0.572784 -1.401252
v -0.386502 0.572784 1.466842
v -0.386502 0.742784 1.466842
v -0.359034 0.615434 1.466842
v -0.359034 0.615434 -1.401252
v -0.359034 0.690434 -1.401252
v -0.359034 0.690434 1.466842
v -0.359034 0.742784 -1.401252
v -0.459034 0.572784 -1.401252
v -0.459034 0.742784 -1.401252
v -0.359034 0.572784 -1.401252
v -0.459034 0.572784 1.466842
v -0.459034 0.742784 1.466842
v -0.359034 0.742784 1.466842
v -0.359034 0.572784 1.466842
v -0.459034 1.156453 -1.401252
v -0.459034 1.156453 1.466842
v -0.459034 1.326453 -1.401252
v -0.459034 1.326453 1.466842
v -0.446502 1.156453 -1.401252
v -0.386502 1.156453 -1.401252
v -0.359034 1.156453 -1.401252
v -0.359034 1.156453 1.466842
v -0.386502 1.156453 1.466842
v -0.446502 1.156453 1.466842
v -0.359034 1.326453 -1.401252
v -0.359034 1.326453 1.466842
v -0.446502 1.326453 -1.401252
v -0.386502 1.326453 -1.401252
v -0.446502 1.326453 1.466842
v -0.386502 1.326453 1.466842
v -0.459034 1.174488 1.466842
v -0.386502 1.156453 -0.192355
v -0.386502 1.326453 0.304449
v -0.459298 1.162911 1.466842
v -0.455901 0.448341 1.466842
v -0.464123 0.951277 1.466842
v -0.386502 1.033793 -0.550814
v -0.386502 1.441166 0.639683
v -0.351566 0.615434 0.032795
v -0.344099 1.200612 -1.401252
v -0.344099 1.275612 -1.401252
v -0.359034 1.200612 -1.401252
v -0.359034 1.275612 -1.401252
v -0.344099 1.200612 -1.413158
v -0.344099 1.275612 -1.413158
v -0.344099 1.275612 1.466842
v -0.344099 1.200612 1.466842
v -0.344099 1.200612 1.486842
v -0.344099 1.275612 1.486842
v -0.359034 1.200612 1.466842
v -0.359034 1.275612 1.466842
vn -1.0000 -0.0000 -0.0000
vn -0.0000 -0.0000 -1.0000
vn 1.0000 -0.0000 -0.0000
vn -0.0000 -0.0000 1.0000
vn -0.5774 -0.5773 -0.5774
vn -0.7071 -0.7071 -0.0000
vn -0.0000 -1.0000 -0.0000
vn -0.0000 -0.7071 0.7071
vn 0.5774 -0.5774 0.5774
vn 0.5774 -0.5774 -0.5774
vn -0.5774 -0.5774 0.5774
vn -0.5774 -0.5773 0.5774
vn -0.5774 -0.5774 -0.5774
vn -0.5773 0.5774 -0.5774
vn -0.5773 0.5774 0.5774
vn -0.7071 0.7071 -0.0000
vn -0.0000 1.0000 -0.0000
vn -0.0000 0.7071 0.7071
vn -0.5774 0.5774 0.5774
vn -0.5774 0.5774 -0.5774
vn 0.5774 0.5774 -0.5774
vn 0.5774 0.5774 0.5774
vn 0.5774 0.5773 0.5773
vn 0.5774 0.5773 -0.5773
vn -0.5773 -0.5774 0.5774
vn -0.5773 -0.5773 -0.5774
vn -0.5773 -0.5774 -0.5774
vn 0.5773 -0.5774 0.5774
vn 0.7071 -0.7071 -0.0000
vn 0.7071 0.7071 -0.0000
vn 0.5773 -0.5774 -0.5774
vn 0.5773 0.5774 -0.5774
vn 0.3021 -0.9042 -0.3021
vn -0.7071 -0.0000 -0.7071
vn -0.3015 -0.3015 -0.9045
vn -0.3015 0.3015 -0.9045
vn -0.3042 -0.3042 -0.9028
vt 0.375000 0.000000
vt 0.625000 0.000000
vt 0.625000 0.250000
vt 0.375000 0.250000
vt 0.625000 0.500000
vt 0.375000 0.500000
vt 0.625000 0.750000
vt 0.375000 0.750000
vt 0.625000 1.000000
vt 0.375000 1.000000
vt 0.133298 0.504671
vt 0.133298 0.505206
vt 0.125000 0.500000
vt 0.125000 0.750000
vt 0.133429 0.744712
vt 0.165466 0.744712
vt 0.165466 0.734037
vt 0.155723 0.734037
vt 0.155723 0.515346
vt 0.165466 0.515346
vt 0.165466 0.504671
vt 0.133298 0.744712
vt 0.133298 0.515346
vt 0.141936 0.515346
vt 0.141936 0.734037
vt 0.133298 0.734037
vt 0.866702 0.734037
vt 0.858064 0.734037
vt 0.858064 0.515346
vt 0.866702 0.515346
vt 0.866702 0.505206
vt 0.875000 0.500000
vt 0.875000 0.750000
vt 0.866571 0.744712
vt 0.866702 0.744712
vt 0.866702 0.504671
vt 0.834534 0.504671
vt 0.834534 0.515346
vt 0.844278 0.515346
vt 0.844277 0.734037
vt 0.834534 0.734037
vt 0.834534 0.744712
vt 0.625000 0.244841
vt 0.375000 0.244841
vt 0.375000 0.005833
vt 0.625000 0.005833
vt 0.375000 0.744167
vt 0.375000 0.505159
vt 0.625000 0.505159
vt 0.625000 0.744167
vt 0.374691 0.505159
vt 0.374691 0.744167
vt 0.284793 0.505159
vt 0.353874 0.505159
vt 0.353874 0.744167
vt 0.284793 0.744167
vt 0.125000 0.505159
vt 0.180200 0.505159
vt 0.180200 0.744167
vt 0.125000 0.744167
vt 0.261200 0.744167
vt 0.203792 0.744167
vt 0.203792 0.505159
vt 0.261200 0.505159
vt 0.796208 0.505159
vt 0.796208 0.605900
vt 0.779185 0.576029
vt 0.819800 0.647301
vt 0.819800 0.505159
vt 0.875000 0.505159
vt 0.875000 0.744167
vt 0.819800 0.744167
vt 0.835720 0.675237
vt 0.796208 0.744167
vt 0.738800 0.744167
vt 0.738800 0.505159
vt 0.715207 0.744167
vt 0.646126 0.744167
vt 0.646126 0.505159
vt 0.715207 0.505159
vt 0.625309 0.505159
vt 0.625309 0.744167
vt 0.625000 0.260028
vt 0.375000 0.260028
vt 0.375000 0.989972
vt 0.625000 0.989972
vt 0.135028 0.501026
vt 0.135028 0.500000
vt 0.135028 0.750000
vt 0.135028 0.748276
vt 0.132695 0.624651
vt 0.130361 0.748276
vt 0.130361 0.501026
vt 0.864972 0.748276
vt 0.864972 0.750000
vt 0.864972 0.500000
vt 0.864972 0.501026
vt 0.869639 0.501026
vt 0.869639 0.748276
vt 0.396734 0.250000
vt 0.396734 0.000000
vt 0.396734 0.012525
vt 0.376464 0.012525
vt 0.376464 0.000000
vt 0.376464 0.250000
vt 0.376163 0.317137
vt 0.376464 0.317137
vt 0.376464 0.500000
vt 0.376464 0.424280
vt 0.376163 0.424280
vt 0.558979 0.500000
vt 0.396734 0.317137
vt 0.464002 0.317137
vt 0.464002 0.294759
vt 0.486975 0.294759
vt 0.486975 0.317137
vt 0.542877 0.317137
vt 0.542877 0.294759
vt 0.565850 0.294759
vt 0.565850 0.317137
vt 0.619600 0.317137
vt 0.619600 0.424280
vt 0.565850 0.424280
vt 0.565850 0.473330
vt 0.558979 0.473330
vt 0.548844 0.473330
vt 0.542877 0.473330
vt 0.542877 0.424280
vt 0.486975 0.424280
vt 0.486975 0.473330
vt 0.479901 0.473330
vt 0.479901 0.500000
vt 0.548844 0.500000
vt 0.464002 0.473330
vt 0.464002 0.424280
vt 0.396734 0.424280
vt 0.396734 0.500000
vt 0.469766 0.500000
vt 0.469766 0.473330
vt 0.376464 0.750000
vt 0.479901 0.521261
vt 0.469766 0.521261
vt 0.396734 0.750000
vt 0.558979 0.521261
vt 0.548844 0.521261
vt 0.396734 1.000000
vt 0.376464 1.000000
vt 0.395976 0.000000
vt 0.395976 0.250000
vt 0.375706 0.250000
vt 0.375706 0.000000
vt 0.395976 0.251021
vt 0.395976 0.500000
vt 0.375706 0.251021
vt 0.375706 0.500000
vt 0.395976 0.750000
vt 0.469008 0.750000
vt 0.469008 0.714286
vt 0.479143 0.714286
vt 0.479143 0.750000
vt 0.548086 0.750000
vt 0.548086 0.714286
vt 0.558221 0.714286
vt 0.558221 0.750000
vt 0.375706 0.750000
vt 0.479143 0.776670
vt 0.486217 0.776670
vt 0.486217 0.825720
vt 0.542119 0.825720
vt 0.542119 0.776670
vt 0.548086 0.776670
vt 0.558221 0.776670
vt 0.565091 0.776670
vt 0.565091 0.825720
vt 0.618842 0.825720
vt 0.618842 0.932863
vt 0.565091 0.932863
vt 0.565091 0.955241
vt 0.544556 0.955241
vt 0.542991 0.955712
vt 0.542119 0.955241
vt 0.514392 0.964328
vt 0.486217 0.955241
vt 0.463244 0.955241
vt 0.446428 0.949647
vt 0.463244 0.932863
vt 0.395976 0.932863
vt 0.395976 1.000000
vt 0.542119 0.932863
vt 0.486217 0.932863
vt 0.469008 0.776670
vt 0.395976 0.825720
vt 0.463244 0.825720
vt 0.463244 0.776670
vt 0.375405 0.825720
vt 0.375706 0.825720
vt 0.375706 1.000000
vt 0.375706 0.932862
vt 0.375405 0.932862
vt 0.380189 0.000000
vt 0.380189 0.250000
vt 0.619197 0.250000
vt 0.619197 0.000000
vt 0.380189 0.281330
vt 0.619197 0.281330
vt 0.619197 0.431330
vt 0.380189 0.431330
vt 0.380189 0.500000
vt 0.619197 0.500000
vt 0.380189 0.562721
vt 0.619197 0.562721
vt 0.619197 0.673015
vt 0.380189 0.673015
vt 0.380189 0.750000
vt 0.619197 0.750000
vt 0.380189 0.818670
vt 0.619197 0.818670
vt 0.619197 0.968670
vt 0.380189 0.968670
vt 0.380189 1.000000
vt 0.619197 1.000000
vt 0.619197 0.250000
vt 0.619197 0.223479
vt 0.480930 0.431330
vt 0.380189 0.564940
vt 0.619197 0.564940
vt 0.619197 0.675234
vt 0.380189 0.675234
vt 0.522331 0.818670
vt 0.135028 0.748276
vt 0.864972 0.748276
vt 0.869639 0.748276
s 1
f 1/1/1 18/2/1 26/3/1 23/4/1
f 23/4/2 26/3/2 32/5/2 31/6/2
f 31/6/3 32/5/3 30/7/3 29/8/3
f 29/8/4 30/7/4 18/9/4 1/10/4
f 33/11/5 34/12/6 23/13/7 31/6/7 29/8/7 1/14/7 56/15/8 55/16/9 58/17/10 57/18/10 36/19/9 37/20/9 35/21/10
f 61/22/11 56/15/8 1/14/7 23/13/7 34/12/6 38/23/12 39/24/11 59/25/13 60/26/13
f 62/27/14 64/28/14 42/29/15 41/30/15 40/31/16 26/32/17 18/33/17 65/34/18 63/35/19
f 65/34/18 18/33/17 30/7/17 32/5/17 26/32/17 40/31/16 43/36/20 44/37/21 45/38/22 46/39/22 67/40/21 68/41/21 66/42/22
f 47/43/23 48/44/15 69/45/14 70/46/24
f 72/47/13 50/48/11 49/49/9 71/50/10
f 39/51/11 50/48/11 72/47/13 59/52/13
f 77/53/25 42/54/15 64/55/14 80/56/26
f 48/57/15 109/58/15 111/59/14 69/60/14
f 79/61/14 106/62/27 101/63/25 78/64/15
f 102/65/28 114/66/29 119/67/3
f 115/68/30 110/69/23 47/70/23 70/71/24 112/72/24 120/73/3
f 115/68/30 120/73/3 112/72/24
f 119/67/3 114/66/29 105/74/31 84/75/32 81/76/22 102/65/28
f 83/77/10 67/78/21 46/79/22 82/80/9
f 71/50/10 49/49/9 36/81/9 57/82/10
f 51/83/21 28/5/2 27/6/2 52/84/10
f 27/6/3 28/5/3 25/7/3 24/8/3
f 74/85/9 24/8/4 25/7/4 73/86/22
f 53/87/9 52/88/10 27/6/7 24/8/7 74/89/9 75/90/33 121/91/7 85/92/10 86/93/9
f 75/90/33 85/92/10 121/91/7
f 76/94/32 73/95/22 25/7/17 28/5/17 51/96/21 54/97/22 87/98/22 88/99/32
f 41/100/15 16/3/1 7/2/1 43/101/20 40/102/16
f 34/103/6 33/104/5 3/1/1 12/4/1 38/105/12
f 50/106/11 39/107/11 38/105/12 12/4/4 21/6/4 37/108/9 36/109/9 49/110/9
f 123/111/23 22/5/4 16/3/4 41/100/15 42/112/15 77/113/25 90/114/25 91/115/15 78/116/15 101/117/25 97/118/25 99/119/15 109/120/15 48/121/15 47/122/23 110/123/23 107/124/23 125/125/23
f 124/126/9 103/127/9 102/128/28 81/129/22 89/130/22 87/131/22 54/132/22 122/133/9
f 92/134/9 82/135/9 46/136/22 45/137/22 53/138/9 86/139/9
f 21/6/3 19/8/3 35/140/10 37/108/9
f 54/132/22 51/141/21 52/142/10 53/138/9 45/137/22 44/143/21 20/7/3 22/5/3 123/111/23 127/144/21 126/145/10 122/133/9
f 7/9/2 20/7/2 44/143/21 43/146/20
f 19/8/2 3/10/2 33/147/5 35/140/10
f 12/13/7 3/14/7 19/8/7 21/6/7
f 22/5/17 20/7/17 7/33/17 16/32/17
f 9/3/1 4/2/1 62/148/14 63/149/19
f 2/1/1 5/4/1 61/150/11 60/151/13
f 65/152/18 66/153/22 17/5/4 9/3/4 63/149/19
f 56/154/8 61/150/11 5/4/4 15/6/4 55/155/9
f 14/7/3 17/5/3 66/153/22 68/156/21 75/157/33 74/158/9 73/159/22 76/160/32 129/161/31 130/162/9 131/163/22 128/164/24
f 15/6/3 13/8/3 58/165/10 55/155/9
f 76/160/32 88/166/32 95/167/32 84/168/32 105/169/31 104/170/31 132/171/31 129/161/31
f 133/172/24 108/173/24 112/174/24 70/175/24 69/176/14 111/177/14 100/178/14 113/179/34 116/180/2 98/181/35 118/182/2 94/183/36 93/184/37 117/185/2 80/186/26 64/187/14 62/188/14 4/9/2 14/7/2 128/164/24
f 80/186/26 117/185/2 93/184/37
f 106/189/27 79/190/14 94/183/36 118/182/2 98/181/35
f 98/181/35 116/180/2 113/179/34
f 85/191/10 75/157/33 68/156/21 67/192/21 83/193/10 96/194/10
f 71/195/10 57/196/10 58/165/10 13/8/2 2/10/2 60/197/13 59/198/13 72/199/13
f 5/13/7 2/14/7 13/8/7 15/6/7
f 17/5/17 14/7/17 4/33/17 9/32/17
f 91/200/15 90/201/25 93/202/37 94/203/36
f 77/204/25 80/205/26 93/202/37 90/201/25
f 83/206/10 82/207/9 92/208/9 96/209/10
f 86/210/9 85/211/10 96/209/10 92/208/9
f 88/212/32 87/213/22 89/214/22 95/215/32
f 81/216/22 84/217/32 95/215/32 89/214/22
f 79/218/14 78/219/15 91/220/15 94/221/36
f 100/203/14 99/200/15 97/201/25 98/222/35 113/223/34
f 104/209/31 105/206/31 114/224/29 102/207/28 103/208/9
f 101/204/25 106/205/27 98/222/35 97/201/25
f 104/209/31 103/208/9 124/225/9 132/226/31
f 107/214/23 108/215/24 133/227/24 125/228/23
f 99/220/15 100/221/14 111/218/14 109/219/15
f 115/229/30 112/217/24 108/215/24 107/214/23 110/216/23
f 127/83/21 11/5/2 10/6/2 126/84/10
f 10/6/3 11/5/3 8/7/3 6/8/3
f 130/85/9 6/8/4 8/7/4 131/86/22
f 122/87/9 126/88/10 10/6/7 6/8/7 130/89/9 129/230/31 132/92/31 124/93/9
f 128/231/24 131/95/22 8/7/17 11/5/17 127/96/21 123/97/23 125/98/23 133/232/24
